<?xml version="1.0" encoding="UTF-8"?>
<svg version="1.1" xmlns="http://www.w3.org/2000/svg" width="687" height="746">
<path d="M0 0 C226.71 0 453.42 0 687 0 C687 246.18 687 492.36 687 746 C460.29 746 233.58 746 0 746 C0 499.82 0 253.64 0 0 Z " fill="#080808" transform="translate(0,0)"/>
<path d="M0 0 C226.71 0 453.42 0 687 0 C687 246.18 687 492.36 687 746 C460.29 746 233.58 746 0 746 C0 499.82 0 253.64 0 0 Z M300.3125 7.375 C299.28294189 7.40577637 298.25338379 7.43655273 297.19262695 7.46826172 C290.94731167 7.72239781 285.09564606 8.6582688 279 10 C276.52124392 10.43982031 274.04209539 10.87743644 271.5625 11.3125 C252.28937803 14.87673901 233.14644925 20.60707732 215 28 C215 28.66 215 29.32 215 30 C214.16210938 30.0928125 213.32421875 30.185625 212.4609375 30.28125 C208.48863119 31.10619849 205.19235058 32.64416563 201.625 34.5 C200.92802002 34.85747314 200.23104004 35.21494629 199.51293945 35.58325195 C197.33505931 36.70950544 195.1664835 37.85199522 193 39 C192.3414502 39.34595215 191.68290039 39.6919043 191.00439453 40.04833984 C174.66692659 48.69661904 159.30947826 59.31173809 145 71 C144.43958008 71.45745605 143.87916016 71.91491211 143.30175781 72.38623047 C128.28189974 84.7724126 113.79691758 98.47525646 102 114 C101.23171875 114.95132813 100.4634375 115.90265625 99.671875 116.8828125 C84.88252964 135.43925527 72.41357676 156.49326311 64.703125 178.97460938 C63.95347249 181.13402507 63.16755833 183.27785519 62.375 185.421875 C59.97333826 191.96529467 57.63222291 198.37121639 56.48828125 205.26953125 C55.96869949 208.17503247 55.28338234 211.02546118 54.59028625 213.89369202 C49.22650859 236.56999293 48.58324389 259.07436185 48.79400635 282.24304199 C48.8253288 286.06562121 48.83852898 289.88826552 48.85351562 293.7109375 C48.88518398 301.14079491 48.93601627 308.57034283 49 316 C47.59669434 316.2012146 47.59669434 316.2012146 46.16503906 316.40649414 C35.14349321 318.47324653 24.60854787 331.08460136 18.35400391 339.78125 C12.63748535 348.20408187 10.24348583 357.16471837 8 367 C7.82125839 367.64574478 7.64251678 368.29148956 7.45835876 368.95680237 C6.9567411 371.19283255 6.83785625 373.23642357 6.79125977 375.52709961 C6.77196915 376.42001205 6.75267853 377.3129245 6.73280334 378.2328949 C6.6740851 382.37388377 6.62560573 386.51470777 6.5949707 390.65600586 C6.5736231 392.81339757 6.53980689 394.97070843 6.49243164 397.12768555 C6.17949956 411.53926567 7.51502454 423.96218598 12.20431519 437.62545776 C13.32659812 440.97465857 14.2981631 444.36447123 15.27174377 447.75944519 C16.43212772 451.32948516 18.12390621 454.51080355 20 457.75 C20.58430786 458.76634521 20.58430786 458.76634521 21.18041992 459.80322266 C29.4703542 473.83838067 39.87639525 485.57539366 54 494 C55.32 494 56.64 494 58 494 C58 494.66 58 495.32 58 496 C71.67087862 500.8606705 84.49084099 504.17904297 99 505 C99.09796875 506.2375 99.1959375 507.475 99.296875 508.75 C101.52007201 535.47231324 101.52007201 535.47231324 108.85546875 561.12109375 C109.88691996 563.71556317 110.6608041 566.24283449 111.375 568.9375 C113.43382348 575.96037564 116.74760886 582.4690012 120 589 C120.35400879 589.7120459 120.70801758 590.4240918 121.07275391 591.15771484 C125.68832522 600.3541232 130.57083331 608.92010132 137 617 C137.70898438 617.91136719 138.41796875 618.82273437 139.1484375 619.76171875 C146.69155789 629.25017019 155.00984072 637.35099982 164.46875 644.91015625 C167.28203606 647.23285385 169.80951031 649.71802008 172.34375 652.3359375 C174.69014107 654.69339645 177.20414617 656.83344363 179.72265625 659.00390625 C181.889622 660.90325359 184.01309708 662.84390011 186.12719727 664.80175781 C209.16591347 686.11679501 234.30091875 704.47715531 264 715.375 C264.74894531 715.6534375 265.49789063 715.931875 266.26953125 716.21875 C268.83982952 717.16502896 271.41829812 718.08527785 274 719 C275.1240625 719.40404053 276.248125 719.80808105 277.40625 720.22436523 C286.46912562 723.38078298 295.53477845 725.69764834 305 727.3125 C305.74181519 727.44107391 306.48363037 727.56964783 307.2479248 727.70211792 C321.55294574 730.1018967 335.76526874 730.56965482 350.25 730.5625 C351.27754395 730.56512848 352.30508789 730.56775696 353.36376953 730.57046509 C356.31086466 730.56960892 359.25630929 730.54294996 362.203125 730.50390625 C363.07567932 730.5003009 363.94823364 730.49669556 364.847229 730.49298096 C369.77955021 730.38021261 373.66211166 729.62963845 378.21237183 727.72389221 C380.64465768 726.73894869 383.07197174 726.27161916 385.65234375 725.82421875 C386.66723877 725.63956055 387.68213379 725.45490234 388.7277832 725.26464844 C389.78698975 725.07418945 390.84619629 724.88373047 391.9375 724.6875 C402.40906114 722.68190273 412.16609032 720.10792079 422 716 C422.79212891 715.66983887 423.58425781 715.33967773 424.40039062 714.99951172 C456.93849674 701.24453774 483.17701521 681.21442383 507.86181641 656.1015625 C511.08576852 652.8371104 514.32807389 649.66292592 517.80859375 646.671875 C538.74171952 628.62377978 561.1898198 606.06263671 568.9375 578.6875 C570.07287231 574.74709022 571.57268106 571.09250922 573.1953125 567.33203125 C574.21745725 564.78095623 574.21745725 564.78095623 574 561 C574.66 561 575.32 561 576 561 C577.4738397 554.01653638 578.92790226 547.02924055 580.3671875 540.03857422 C580.89540997 537.50220967 581.44205585 534.97133424 582 532.44140625 C584.01231844 522.83452063 584.32610826 513.75909163 584 504 C585.155 504.0825 586.31 504.165 587.5 504.25 C610.10265317 504.25 633.68252392 491.54298456 649.75390625 476.40625 C654.97151632 470.98949451 665 460.18512358 665 452 C665.66 452 666.32 452 667 452 C669.75080252 445.68851402 671.76858939 439.44645852 673.34765625 432.74609375 C673.85595746 430.60635873 674.44390733 428.48549264 675.0625 426.375 C677.20772771 418.65218025 678.30502785 411.31333077 678.265625 403.30078125 C678.26753845 402.4214946 678.2694519 401.54220795 678.27142334 400.63627625 C678.27277296 398.79519359 678.26916292 396.95410101 678.26074219 395.11303711 C678.24998605 392.30886407 678.26069914 389.50532589 678.2734375 386.70117188 C678.27211644 384.90104027 678.26955516 383.10090905 678.265625 381.30078125 C678.27169769 380.05679314 678.27169769 380.05679314 678.27789307 378.78767395 C678.23840942 373.85218654 677.56739026 369.7316885 676 365 C675.57460937 363.31970703 675.57460937 363.31970703 675.140625 361.60546875 C670.74460792 344.73478917 660.04029303 330.85468821 645.359375 321.27734375 C643.15402828 319.84130149 643.15402828 319.84130149 641 320 C641 319.34 641 318.68 641 318 C640.37351562 317.72285156 639.74703125 317.44570313 639.1015625 317.16015625 C638.28429687 316.79792969 637.46703125 316.43570312 636.625 316.0625 C635.81289063 315.70285156 635.00078125 315.34320313 634.1640625 314.97265625 C632.76316215 314.3430097 631.37374716 313.68687358 630 313 C629.99413376 312.22644165 629.98826752 311.4528833 629.98222351 310.65588379 C629.92351522 303.24622636 629.85102119 295.83687593 629.76428509 288.42749786 C629.72018144 284.62128442 629.6808078 280.81516349 629.65356445 277.00878906 C629.38217561 240.22645335 626.18168686 202.30125527 608.98828125 169.04296875 C607.9214441 166.83760975 607.0544676 164.60350799 606.1875 162.3125 C597.13269369 139.34335812 581.34314869 118.27919907 565 100 C564.48083008 99.41766602 563.96166016 98.83533203 563.42675781 98.23535156 C557.61838782 91.74999858 551.74374656 85.53012241 545 80 C544.10925781 79.24460937 543.21851563 78.48921875 542.30078125 77.7109375 C527.12048107 64.89201735 511.35534689 53.62076507 494.0625 43.8125 C493.3821167 43.42570068 492.7017334 43.03890137 492.00073242 42.64038086 C488.70055325 40.65909566 488.70055325 40.65909566 485 40 C485 39.34 485 38.68 485 38 C483.40671875 37.31164063 483.40671875 37.31164063 481.78125 36.609375 C480.35411659 35.98969865 478.92703609 35.36990043 477.5 34.75 C476.80390625 34.44964844 476.1078125 34.14929688 475.390625 33.83984375 C471.88785376 32.3154896 468.44786877 30.73627721 465.0546875 28.98046875 C460.70713639 26.78110682 456.22754236 25.1449931 451.625 23.5625 C450.33311768 23.1135437 450.33311768 23.1135437 449.01513672 22.65551758 C441.69412633 20.15251083 434.29670257 18.02591328 426.8203125 16.04296875 C423.49657284 15.13556743 420.26319462 14.09970108 417 13 C409.4245661 10.80103515 401.89449814 9.63400292 394.0625 8.875 C393.29671631 8.79958984 392.53093262 8.72417969 391.74194336 8.64648438 C374.14175483 7.09337224 356.46964014 6.82443425 338.8125 6.875 C337.84218842 6.8765509 336.87187683 6.87810181 335.87216187 6.87969971 C324.01546065 6.90183608 312.16336728 6.98220994 300.3125 7.375 Z " fill="#FDFDFE" transform="translate(0,0)"/>
<path d="M0 0 C1.63652145 -0.00390578 3.27304191 -0.00824415 4.90956116 -0.01298523 C8.31042798 -0.0203701 11.71119085 -0.02021266 15.11206055 -0.01489258 C19.41573744 -0.00909919 23.71898378 -0.02606404 28.02258968 -0.04923725 C31.39374675 -0.06414505 34.76480403 -0.06482362 38.13598824 -0.06172752 C39.72041236 -0.06223192 41.30484344 -0.06729833 42.88923454 -0.07753944 C57.13764032 -0.158396 70.54916619 1.80480162 84.34765625 5.30078125 C85.82218677 5.48776024 87.30188374 5.64286606 88.78515625 5.73828125 C91.90110351 6.03299468 94.58864597 6.62626053 97.53125 7.68359375 C103.07293765 9.59398911 108.71819966 10.9662576 114.41796875 12.31835938 C118.90440012 13.4436088 122.52855525 14.80040799 126.50317383 17.25927734 C128.61286956 18.45053638 130.74417622 19.29333058 133.0078125 20.15625 C139.16143037 22.54253668 144.94437954 25.55247252 150.78515625 28.61328125 C151.84025391 29.15662109 152.89535156 29.69996094 153.98242188 30.25976562 C165.09225115 36.05055049 175.3294795 42.79734358 185.34765625 50.30078125 C186.39050781 51.07421875 187.43335938 51.84765625 188.5078125 52.64453125 C196.21250808 58.41641394 203.40328999 64.63273308 210.34765625 71.30078125 C210.91129883 71.83719238 211.47494141 72.37360352 212.05566406 72.92626953 C220.11886373 80.63550764 227.43025296 88.6194349 234.07275391 97.5859375 C235.30636164 99.24523676 236.564966 100.88267729 237.828125 102.51953125 C249.6886846 118.188549 258.60746546 136.12432586 265.0546875 154.6328125 C265.89503181 157.01674998 266.76591149 159.39021895 267.671875 161.75 C271.00515445 170.52863686 272.80729961 179.08788866 274.34765625 188.30078125 C274.69293401 190.07336919 275.04575342 191.84452595 275.41015625 193.61328125 C275.55373566 194.34060959 275.69731506 195.06793793 275.84524536 195.81730652 C276.16531496 197.39944733 276.5048333 198.97786609 276.86984253 200.55024719 C278.73445862 209.26852421 278.60190807 217.91990439 278.54296875 226.78125 C278.5392307 228.44704517 278.53638748 230.11284257 278.53439331 231.77864075 C278.52681911 236.12690483 278.5072253 240.47503169 278.48498535 244.82324219 C278.46439176 249.27472071 278.45536292 253.72622177 278.4453125 258.17773438 C278.42397248 266.88547909 278.38991323 275.59311302 278.34765625 284.30078125 C274.66022391 284.35929049 270.97291255 284.39454798 267.28515625 284.42578125 C266.24681641 284.44253906 265.20847656 284.45929688 264.13867188 284.4765625 C258.48689486 284.5124468 253.63924859 284.37610083 248.34765625 282.30078125 C246.484375 280.1640625 246.484375 280.1640625 245.03515625 277.61328125 C239.18455732 268.57026196 230.15142844 264.17298121 220.34765625 260.30078125 C219.55474686 259.95526215 218.76183746 259.60974304 217.94490051 259.25375366 C212.68254211 257.85966363 207.57313506 258.00598735 202.15112305 258.01025391 C200.92600006 258.00353668 199.70087708 257.99681946 198.43862915 257.98989868 C195.08923731 257.97418558 191.7400935 257.96754539 188.39068198 257.96626711 C186.29435215 257.96484203 184.19804804 257.96056569 182.10172462 257.95527267 C174.77751652 257.93678809 167.45338105 257.9286 160.12915039 257.93017578 C153.31944142 257.93137646 146.51004976 257.91028482 139.70042104 257.87868845 C133.83947097 257.85247038 127.9786242 257.84181081 122.117616 257.8430866 C118.62353614 257.84359466 115.12973844 257.83799907 111.63571739 257.8167305 C107.73447847 257.79362993 103.83366906 257.80290283 99.93237305 257.81494141 C98.78661301 257.80370239 97.64085297 257.79246338 96.46037292 257.78088379 C89.45058899 257.83572385 84.51760854 259.03445614 78.34765625 262.30078125 C76.58421875 262.98140625 76.58421875 262.98140625 74.78515625 263.67578125 C68.18001668 266.79821087 63.95165474 270.29856954 60.00390625 276.45458984 C57.49789072 279.61742746 56.11958369 281.08466733 52.20288086 282.18121338 C48.37311433 282.45637816 44.61533036 282.42824327 40.78515625 282.27734375 C39.38416624 282.25866146 37.98311031 282.24444147 36.58203125 282.23446655 C32.9174541 282.19651957 29.25692471 282.09852659 25.59393311 281.98742676 C21.84703331 281.88459903 18.0994705 281.83934689 14.3515625 281.7890625 C7.01509357 281.68223524 -0.31805525 281.5118833 -7.65234375 281.30078125 C-7.93980469 280.36234375 -8.22726562 279.42390625 -8.5234375 278.45703125 C-11.0178308 271.48308736 -17.66984299 268.09188979 -23.65234375 264.30078125 C-24.51859375 263.72328125 -25.38484375 263.14578125 -26.27734375 262.55078125 C-29.29486806 260.96261056 -32.3637756 260.16945963 -35.65234375 259.30078125 C-36.31234375 258.97078125 -36.97234375 258.64078125 -37.65234375 258.30078125 C-39.39898627 258.19697056 -41.14956553 258.15692489 -42.89926147 258.1468811 C-44.56861755 258.13398041 -44.56861755 258.13398041 -46.271698 258.12081909 C-47.49865387 258.11655914 -48.72560974 258.11229919 -49.98974609 258.10791016 C-51.27774109 258.09973267 -52.56573608 258.09155518 -53.89276123 258.08312988 C-58.1745799 258.05688989 -62.45640839 258.04159023 -66.73828125 258.02734375 C-68.21459586 258.02198297 -69.6909104 258.01660546 -71.16722488 258.0112114 C-77.31452525 257.98957079 -83.461823 257.97083965 -89.60915184 257.959589 C-98.40147992 257.94339025 -107.19336317 257.91032613 -115.98552358 257.85318816 C-122.17508442 257.81434699 -128.36452706 257.79493907 -134.55420649 257.78966844 C-138.24582662 257.78603136 -141.93697257 257.77418943 -145.62845993 257.7415657 C-149.75956862 257.70558421 -153.88973704 257.70989163 -158.02099609 257.71728516 C-159.22770966 257.70087982 -160.43442322 257.68447449 -161.67770386 257.66757202 C-175.1368059 257.76568706 -185.09961293 263.03298275 -194.65234375 272.30078125 C-197.98750397 276.04324422 -201.05557021 279.51046063 -202.65234375 284.30078125 C-214.86234375 284.30078125 -227.07234375 284.30078125 -239.65234375 284.30078125 C-239.8528878 266.3364912 -239.8528878 266.3364912 -239.89648438 258.50585938 C-239.92604007 253.22279846 -239.96046563 247.94018216 -240.02954102 242.6574707 C-240.2785551 223.10126106 -240.14857909 204.68235601 -235.23193359 185.60832214 C-234.42137406 182.38121372 -233.8185897 179.13491837 -233.21484375 175.86328125 C-230.3391557 162.81085271 -225.74612036 150.73029706 -219.484375 138.94921875 C-218.18883145 136.49070501 -217.32998002 134.33265353 -216.4375 131.65234375 C-214.13820228 125.30992905 -210.0358133 119.85153669 -206.27734375 114.30078125 C-205.6762529 113.40604095 -205.6762529 113.40604095 -205.0630188 112.4932251 C-196.5134893 99.78384904 -187.52218236 87.67343908 -176.43359375 77.046875 C-174.5118569 75.23818426 -174.5118569 75.23818426 -172.58984375 72.67578125 C-169.66727926 69.09328285 -166.17150038 66.28416885 -162.65234375 63.30078125 C-161.72421875 62.48480469 -160.79609375 61.66882813 -159.83984375 60.828125 C-143.25434847 46.3400121 -123.91626521 31.84352631 -102.65234375 25.30078125 C-102.65234375 24.64078125 -102.65234375 23.98078125 -102.65234375 23.30078125 C-84.16172986 14.70655226 -64.53603469 8.69921614 -44.65234375 4.30078125 C-43.56711426 4.05086426 -43.56711426 4.05086426 -42.45996094 3.79589844 C-28.41887422 0.74606307 -14.31758962 -0.01459059 0 0 Z " fill="#FA7513" transform="translate(319.65234375,38.69921875)"/>
<path d="M0 0 C0.7857843 -0.00807175 1.5715686 -0.01614349 2.38116455 -0.02445984 C4.04900902 -0.03831824 5.71688206 -0.04903251 7.38476562 -0.05688477 C9.92893877 -0.07405552 12.47179826 -0.11791829 15.015625 -0.16210938 C16.6354071 -0.17223978 18.25520027 -0.18075479 19.875 -0.1875 C20.63351257 -0.20500809 21.39202515 -0.22251617 22.17352295 -0.24055481 C25.60465381 -0.22655757 28.07935702 0.17934508 31.18603516 1.65869141 C34.24413635 5.56959642 33.87529535 9.1034202 33.8046875 13.9375 C33.81669693 15.36193169 33.81669693 15.36193169 33.82894897 16.81513977 C33.85202936 19.85245305 33.8425645 22.88843191 33.828125 25.92578125 C33.82426376 28.94502981 33.82786053 31.9636815 33.84872437 34.98286438 C33.8607043 36.85944636 33.85832686 38.73619578 33.83901978 40.61271667 C33.86463266 46.68942743 34.98991116 51.59635977 37.203125 57.23828125 C37.57953125 58.32753906 37.9559375 59.41679687 38.34375 60.5390625 C45.23552158 79.24876632 57.47215438 96.41914991 76.02734375 105.09082031 C77.74338636 105.82846521 79.47280935 106.53476866 81.203125 107.23828125 C82.316875 107.73328125 83.430625 108.22828125 84.578125 108.73828125 C97.0451331 113.89704322 108.79130612 114.38871276 122.2109375 114.4765625 C123.41644257 114.48463425 124.62194763 114.49270599 125.86398315 114.50102234 C128.40019332 114.51476365 130.93642121 114.52552961 133.47265625 114.53344727 C136.03228285 114.54495521 138.59188567 114.56538793 141.15136719 114.5949707 C168.97269202 114.91543513 194.78872304 111.42492335 215.640625 91.30078125 C220.48701497 86.19047895 225.03892926 80.56667274 228.203125 74.23828125 C228.863125 74.23828125 229.523125 74.23828125 230.203125 74.23828125 C230.47125 73.04203125 230.739375 71.84578125 231.015625 70.61328125 C231.951083 66.84491144 233.40378508 63.68701611 235.203125 60.23828125 C238.1221102 52.61648657 238.37413142 44.98871079 238.51953125 36.9296875 C238.54031235 35.96296616 238.56109344 34.99624481 238.58250427 34.00022888 C238.64751491 30.93381367 238.70665777 27.86731803 238.765625 24.80078125 C238.8088564 22.71288255 238.85247212 20.62499176 238.89648438 18.53710938 C239.00314615 13.43758092 239.10454809 8.33797214 239.203125 3.23828125 C245.73171557 3.13633614 252.26009864 3.06658829 258.78930664 3.01855469 C261.00748363 2.99851725 263.22560832 2.97127952 265.44360352 2.93652344 C268.64352372 2.88765872 271.84274174 2.86523313 275.04296875 2.84765625 C276.02458481 2.82701111 277.00620087 2.80636597 278.01756287 2.78509521 C284.63487015 2.78296902 289.39516019 4.10009952 295.203125 7.23828125 C296.7809375 8.04265625 296.7809375 8.04265625 298.390625 8.86328125 C305.63593609 14.98154395 309.91694745 24.94651203 311.203125 34.23828125 C312.22978065 47.75551881 311.78413822 61.12921498 308.203125 74.23828125 C307.543125 74.23828125 306.883125 74.23828125 306.203125 74.23828125 C306.1 75.47578125 305.996875 76.71328125 305.890625 77.98828125 C305.4437565 81.62706757 304.56725399 83.40132647 302.203125 86.23828125 C301.47961073 88.21842557 300.80047111 90.2164944 300.203125 92.23828125 C299.543125 92.23828125 298.883125 92.23828125 298.203125 92.23828125 C297.94402344 92.97304688 297.68492187 93.7078125 297.41796875 94.46484375 C293.50525627 103.39740279 285.35038312 108.53747163 277.203125 113.23828125 C276.4296875 113.75519531 275.65625 114.27210938 274.859375 114.8046875 C271.50387056 116.61567298 268.07770538 117.45792092 264.390625 118.30078125 C263.71708984 118.46126953 263.04355469 118.62175781 262.34960938 118.78710938 C260.98030507 119.1133838 259.60949088 119.43338077 258.23730469 119.74731445 C256.28166822 120.21932417 254.34855108 120.78183026 252.41796875 121.34765625 C246.27385671 122.90117546 239.81026019 122.48968188 233.515625 122.36523438 C228.01102848 122.37102141 228.01102848 122.37102141 223.19238281 124.70947266 C219.31158139 129.04500126 218.11472117 132.76950361 218.02734375 138.53515625 C217.73386426 150.50620723 216.78226241 162.29796833 215.328125 174.17578125 C215.24694427 174.8665979 215.16576355 175.55741455 215.0821228 176.26916504 C214.19936406 183.70872248 213.12892758 190.33659353 210.203125 197.23828125 C209.83930835 198.85256706 209.5174581 200.47778092 209.265625 202.11328125 C204.68486147 226.2997127 186.96118186 251.6106022 168.515625 267.24609375 C165.62066715 269.74006081 162.81737534 272.3284114 160.015625 274.92578125 C159.1817627 275.69801025 159.1817627 275.69801025 158.33105469 276.48583984 C157.18854185 277.54431553 156.04629151 278.60307462 154.90429688 279.66210938 C153.26115297 281.1845171 151.61556274 282.70421868 149.96875 284.22265625 C149.44055664 284.70984131 148.91236328 285.19702637 148.36816406 285.69897461 C147.2953657 286.68760308 146.22179101 287.67538975 145.14746094 288.66235352 C142.32653467 291.2583316 139.53012307 293.87517891 136.765625 296.53125 C129.05267113 303.90313286 121.1030894 310.35323797 112.203125 316.23828125 C111.17960937 316.9240625 110.15609375 317.60984375 109.1015625 318.31640625 C92.09513526 329.25218478 73.28800444 337.16366847 53.5625 341.44140625 C50.38067886 341.88579025 50.38067886 341.88579025 49.203125 343.23828125 C19.03323296 350.00929252 -14.79206527 348.01810428 -44.20849609 339.02636719 C-46.59161678 338.3007764 -48.98261062 337.61405573 -51.37890625 336.93359375 C-69.69326154 331.51557998 -86.83261632 322.03777504 -101.796875 310.23828125 C-102.74304688 309.5009375 -103.68921875 308.76359375 -104.6640625 308.00390625 C-110.68832333 303.19132394 -116.36968681 298.04034815 -122.01953125 292.80078125 C-124.9072766 290.13641986 -127.84656884 287.54447422 -130.81640625 284.97265625 C-133.10820655 282.96563587 -135.35684252 280.91425274 -137.609375 278.86328125 C-141.06269195 275.73734297 -144.59336289 272.76779234 -148.234375 269.86328125 C-167.08757899 254.48862617 -182.31982909 233.269675 -189.734375 209.92578125 C-189.98598389 209.1383252 -190.23759277 208.35086914 -190.49682617 207.53955078 C-193.7621527 196.76325468 -195.48694451 185.62065528 -197.31958008 174.52880859 C-197.56921774 172.28327496 -197.56921774 172.28327496 -198.796875 171.23828125 C-199.06315448 168.5865338 -199.27182847 165.95122045 -199.4453125 163.29296875 C-199.56465256 161.64189438 -199.68445949 159.9908537 -199.8046875 158.33984375 C-199.98967476 155.73338309 -200.17097709 153.12683149 -200.34375 150.51953125 C-200.51236799 148.00559035 -200.69654045 145.49315518 -200.8828125 142.98046875 C-200.92981293 142.21040497 -200.97681335 141.44034119 -201.02523804 140.64694214 C-201.41343812 135.59274415 -202.44153038 131.75024054 -204.796875 127.23828125 C-207.23997077 125.32083532 -207.23997077 125.32083532 -209.796875 124.23828125 C-210.456875 123.90828125 -211.116875 123.57828125 -211.796875 123.23828125 C-213.59478768 123.15538832 -215.39549208 123.13003905 -217.1953125 123.1328125 C-238.02757105 122.93472686 -257.7441502 120.80170862 -273.546875 105.98828125 C-281.90167136 97.13425277 -286.06961371 86.63615676 -289.796875 75.23828125 C-290.06975342 74.47241699 -290.34263184 73.70655273 -290.6237793 72.91748047 C-293.20958166 64.86576065 -293.2884466 57.00530893 -293.24291992 48.63183594 C-293.23438816 46.24196703 -293.26329867 43.85447942 -293.29492188 41.46484375 C-293.34725084 29.99668577 -292.07056787 18.96782497 -283.796875 10.23828125 C-278.65260826 5.80356855 -273.56756361 2.97615118 -266.6394043 3.01123047 C-265.13841438 3.01145706 -265.13841438 3.01145706 -263.60710144 3.01168823 C-262.5392189 3.0220108 -261.47133636 3.03233337 -260.37109375 3.04296875 C-259.26836624 3.04579865 -258.16563873 3.04862854 -257.02949524 3.05154419 C-253.51434386 3.06272144 -249.99944911 3.08782188 -246.484375 3.11328125 C-244.09831098 3.12331421 -241.71224295 3.13243951 -239.32617188 3.140625 C-233.48298565 3.16265276 -227.63994866 3.19610611 -221.796875 3.23828125 C-221.79140656 4.14790871 -221.79140656 4.14790871 -221.78582764 5.07591248 C-221.74383456 11.41972406 -221.67437207 17.76282344 -221.58935547 24.10620117 C-221.56122778 26.46973528 -221.53997269 28.83336203 -221.52587891 31.19702148 C-221.50433626 34.60578557 -221.45762573 38.01344546 -221.40625 41.421875 C-221.40502136 42.4691124 -221.40379272 43.51634979 -221.40252686 44.59532166 C-221.26893678 51.37256158 -219.97396383 56.2742617 -216.796875 62.23828125 C-216.17134889 63.56632452 -215.55071549 64.89669643 -214.9375 66.23046875 C-205.55001713 85.71276123 -192.56703322 101.27164522 -171.796875 109.23828125 C-166.52512027 110.82007486 -161.16385617 112.02982191 -155.796875 113.23828125 C-155.19675598 113.41606613 -154.59663696 113.59385101 -153.97833252 113.77702332 C-151.0783891 114.39020139 -148.31874604 114.38992786 -145.35449219 114.4152832 C-144.04502625 114.42811844 -142.7355603 114.44095367 -141.38641357 114.45417786 C-139.95552962 114.46235356 -138.52464131 114.46979569 -137.09375 114.4765625 C-136.00388668 114.48267579 -136.00388668 114.48267579 -134.89200592 114.48891258 C-131.03510323 114.50976498 -127.17823588 114.52406192 -123.32128906 114.53344727 C-119.38127411 114.54442084 -115.44183821 114.57871568 -111.5020256 114.61861897 C-108.43718598 114.64508322 -105.37247702 114.65316579 -102.30753326 114.65672874 C-100.85818894 114.66153009 -99.40884778 114.67295356 -97.95961761 114.69176674 C-84.57675708 114.8544889 -71.38490237 112.94702157 -59.484375 106.42578125 C-58.82614746 106.0788623 -58.16791992 105.73194336 -57.48974609 105.37451172 C-55.57793605 104.35260984 -53.68545596 103.30237939 -51.796875 102.23828125 C-50.77464844 101.66980469 -49.75242187 101.10132813 -48.69921875 100.515625 C-38.0850348 94.20085733 -30.42829778 85.54249204 -23.796875 75.23828125 C-23.33539063 74.56023437 -22.87390625 73.8821875 -22.3984375 73.18359375 C-19.46205465 68.75232509 -17.44836437 64.22076296 -15.59375 59.2421875 C-14.796875 57.23828125 -14.796875 57.23828125 -13.796875 56.23828125 C-12.74356744 50.59536154 -12.63299512 45.05233183 -12.5859375 39.32421875 C-12.55789121 37.41014737 -12.52922693 35.49608497 -12.5 33.58203125 C-12.45864708 30.58886763 -12.42172257 27.59587589 -12.39550781 24.60253906 C-12.36790779 21.69692307 -12.32206871 18.79204868 -12.2734375 15.88671875 C-12.27018463 14.99391205 -12.26693176 14.10110535 -12.26358032 13.1812439 C-12.07089649 3.43542434 -9.64070694 0.09289638 0 0 Z " fill="#FCFCFC" transform="translate(333.796875,346.76171875)"/>
<path d="M0 0 C1.10716771 -0.00906223 2.21433542 -0.01812445 3.35505366 -0.02746129 C7.03055749 -0.05259459 10.70546275 -0.04951889 14.38104248 -0.04620361 C17.02991902 -0.05818328 19.67875023 -0.07168474 22.3276062 -0.08691406 C28.7536148 -0.11998119 35.17947656 -0.13112584 41.60556319 -0.13336357 C46.82929499 -0.13527026 52.05297869 -0.14351919 57.27669525 -0.15616608 C72.10642926 -0.19133637 86.93604797 -0.20985047 101.76582399 -0.20684418 C102.56342617 -0.20668436 103.36102835 -0.20652453 104.18280029 -0.20635986 C104.98138178 -0.20619634 105.77996327 -0.20603282 106.60274419 -0.20586434 C119.5621616 -0.2042364 132.52111536 -0.24258108 145.48039857 -0.29891333 C158.8059564 -0.35637881 172.13128796 -0.38399405 185.45697284 -0.38053823 C192.93104103 -0.37921146 200.4046219 -0.39015135 207.87857819 -0.43325043 C214.23677715 -0.46968342 220.59426745 -0.47836152 226.95252565 -0.45121273 C230.19459872 -0.43816036 233.43503144 -0.44224048 236.67702866 -0.47262573 C240.19556924 -0.50346812 243.71054115 -0.48496655 247.22900391 -0.45410156 C248.24807178 -0.47467582 249.26713965 -0.49525007 250.31708837 -0.51644778 C255.94616677 -0.40734026 258.84833535 0.41120523 262.92490768 4.41721725 C265.57838347 7.42550637 267.93491859 10.51785167 269.98553467 13.97235107 C272.10740796 17.48776587 274.29154513 20.87788635 276.67303467 24.22235107 C279.39383083 28.24187394 280.49528352 31.77596978 281.36053467 36.53485107 C282.02053467 36.53485107 282.68053467 36.53485107 283.36053467 36.53485107 C283.36053467 38.18485107 283.36053467 39.83485107 283.36053467 41.53485107 C255.69244169 41.62825493 228.02437232 41.69881099 200.35615349 41.74209976 C187.50957853 41.76273292 174.66310148 41.79086807 161.81658936 41.83660889 C150.62075394 41.87645339 139.42498943 41.9022784 128.22908509 41.91120505 C122.29984965 41.9164238 116.37081706 41.92870572 110.44164658 41.9577713 C104.86191815 41.9849025 99.28247634 41.99330061 93.70268822 41.9872818 C91.65401973 41.98838305 89.60534175 41.99635043 87.55673027 42.01167297 C84.76025593 42.03156476 81.9648647 42.02679306 79.16836548 42.01586914 C78.35707054 42.02752051 77.5457756 42.03917187 76.70989597 42.05117631 C71.46675922 41.99578855 68.5482797 40.95809416 64.36053467 37.53485107 C63.76240967 36.87485107 63.16428467 36.21485107 62.54803467 35.53485107 C56.18835447 29.72028632 49.1277456 28.86569198 40.72772217 29.16375732 C32.23055443 30.10022013 27.36800947 33.69000654 22.02459717 40.25750732 C16.88979135 47.28471811 16.44495454 54.05801929 17.36053467 62.53485107 C19.02995088 68.79751979 22.56966966 74.18361838 27.36053467 78.53485107 C28.20806808 78.93275345 29.0556015 79.33065582 29.92881775 79.74061584 C32.36053467 81.53485107 32.36053467 81.53485107 32.96180725 84.32530212 C32.95070419 85.45559341 32.93960114 86.5858847 32.92816162 87.75042725 C32.92755737 89.0494397 32.92695313 90.34845215 32.92633057 91.68682861 C32.90115274 93.06717122 32.87531983 94.44750204 32.84881592 95.82781982 C32.84378052 97.08292358 32.83874512 98.33802734 32.83355713 99.63116455 C32.80735799 104.32845842 32.73755128 109.02542722 32.67303467 113.72235107 C32.56990967 124.22047607 32.46678467 134.71860107 32.36053467 145.53485107 C-4.26946533 145.03985107 -4.26946533 145.03985107 -41.63946533 144.53485107 C-41.71968295 118.35271165 -41.71968295 118.35271165 -41.73712158 107.13446045 C-41.74904592 99.49991045 -41.76310529 91.86540872 -41.79034424 84.230896 C-41.81218213 78.07116862 -41.82405695 71.91149308 -41.82921982 65.75172997 C-41.83289599 63.40958021 -41.84007431 61.06743307 -41.85092545 58.72530556 C-41.99429335 26.4783861 -41.99429335 26.4783861 -35.63946533 18.53485107 C-35.35844971 17.75239014 -35.07743408 16.9699292 -34.78790283 16.16375732 C-33.41123385 13.01240282 -31.77818671 11.31116951 -29.26446533 8.97235107 C-28.10817627 7.85666748 -28.10817627 7.85666748 -26.92852783 6.71844482 C-18.69639539 1.25316925 -9.68914879 -0.05941577 0 0 Z " fill="#FDFDFB" transform="translate(254.63946533203125,151.46514892578125)"/>
<path d="M0 0 C1.25306946 -0.0087616 2.50613892 -0.01752319 3.79718018 -0.02655029 C7.21516139 -0.04471867 10.63161835 -0.04055648 14.04951239 -0.02465487 C17.64029722 -0.01192894 21.23102026 -0.02375495 24.82180786 -0.03158569 C30.85235171 -0.04066529 36.88258875 -0.0287416 42.91308594 -0.00488281 C49.86380811 0.02230091 56.81379623 0.0135282 63.7645005 -0.01401484 C69.75209313 -0.03678309 75.73946611 -0.03986784 81.72708809 -0.02682149 C85.29439624 -0.01906588 88.86136066 -0.01787634 92.42864609 -0.03450394 C96.41104887 -0.05177166 100.39264528 -0.02776739 104.375 0 C105.54207489 -0.01012115 106.70914978 -0.02024231 107.91159058 -0.03067017 C117.25646383 0.08954101 124.08582209 2.68113571 131.19189453 8.77197266 C139.60488667 18.12985775 138.94341215 30.20211497 138.83837891 42.02441406 C138.81704137 44.87734018 138.83819669 47.72771947 138.86376953 50.58056641 C138.88293737 63.5487344 137.31720634 74.5844227 132.31689453 86.64697266 C131.65689453 86.64697266 130.99689453 86.64697266 130.31689453 86.64697266 C130.05908203 87.37271484 129.80126953 88.09845703 129.53564453 88.84619141 C125.78501446 97.46542781 118.13964303 104.64433725 110.31689453 109.64697266 C108.33893316 110.37643359 106.34173542 111.06006225 104.31689453 111.64697266 C104.31689453 112.30697266 104.31689453 112.96697266 104.31689453 113.64697266 C103.07026122 114.15530857 101.81940067 114.65328411 100.56689453 115.14697266 C99.52275391 115.56462891 99.52275391 115.56462891 98.45751953 115.99072266 C96.31689453 116.64697266 96.31689453 116.64697266 92.31689453 116.64697266 C92.31689453 117.30697266 92.31689453 117.96697266 92.31689453 118.64697266 C89.4868673 120.06198627 87.08290781 119.80566422 83.91796875 119.83984375 C83.26062744 119.84802124 82.60328613 119.85619873 81.92602539 119.86462402 C79.74122004 119.88950878 77.55648071 119.90601832 75.37158203 119.92041016 C74.62110722 119.92573383 73.8706324 119.93105751 73.09741592 119.93654251 C69.11085278 119.96331096 65.12432107 119.9826579 61.13769531 119.99707031 C57.86526891 120.01030593 54.59348154 120.0379564 51.32128906 120.07910156 C47.35070043 120.12901976 43.38068274 120.15326494 39.40979385 120.16029739 C37.9101857 120.16692492 36.41058591 120.18191839 34.91115952 120.2061882 C20.16742697 120.43085108 6.46951984 117.50322582 -5.68310547 108.64697266 C-6.70597656 107.91414063 -6.70597656 107.91414063 -7.74951172 107.16650391 C-17.93091657 99.09709301 -23.71978926 87.75975833 -27.68310547 75.64697266 C-28.02623779 74.81705811 -28.36937012 73.98714355 -28.72290039 73.13208008 C-30.0370439 68.36233722 -30.00794086 63.83902073 -30.01904297 58.91259766 C-30.02569977 57.87939392 -30.03235657 56.84619019 -30.03921509 55.78167725 C-30.04931756 53.59974948 -30.05403285 51.41779097 -30.05371094 49.23583984 C-30.05807274 45.92183622 -30.09438784 42.60917748 -30.13232422 39.29541016 C-30.13819537 37.1678105 -30.14216276 35.04020458 -30.14404297 32.91259766 C-30.158414 31.93309143 -30.17278503 30.95358521 -30.18759155 29.94439697 C-30.13556267 21.98883095 -28.29541973 14.77416339 -23.43310547 8.33447266 C-16.06243225 1.13131473 -10.21248877 -0.088259 0 0 Z " fill="#FAFAFA" transform="translate(162.68310546875,320.35302734375)"/>
<path d="M0 0 C1.79926941 -0.00854256 1.79926941 -0.00854256 3.6348877 -0.01725769 C6.89974997 -0.02641861 10.16308478 -0.00898343 13.42777491 0.02160144 C16.85709666 0.04812577 20.28638634 0.04266713 23.71578979 0.04151917 C29.47056716 0.0443207 35.22486728 0.07026014 40.97949219 0.11132812 C47.61944976 0.15854113 54.258886 0.17432041 60.89899933 0.17212147 C67.99074801 0.17009068 75.08229758 0.19093255 82.17398596 0.21846128 C84.20840692 0.22483488 86.24279547 0.22698199 88.27722549 0.22817802 C92.0757055 0.23469087 95.87353509 0.26096943 99.671875 0.29296875 C100.79206024 0.29160919 101.91224548 0.29024963 103.06637573 0.28884888 C112.35023404 0.40306984 118.00827301 2.50013731 124.90966797 8.82641602 C129.79322843 13.99662024 131.80118491 19.5374111 131.88354492 26.56640625 C131.90279778 28.00456947 131.90279778 28.00456947 131.92243958 29.4717865 C131.92982651 30.50404861 131.93721344 31.53631073 131.94482422 32.59985352 C131.95289597 33.67316422 131.96096771 34.74647491 131.96928406 35.85231018 C131.98311379 38.12776074 131.99384091 40.40323195 132.00170898 42.67871094 C132.0131852 44.98769276 132.03356703 47.29664898 132.06323242 49.60546875 C132.33722954 70.93897641 129.91926909 86.71328168 115.08154297 103.04125977 C111.55695312 106.28667418 107.68258375 108.92241047 103.64404297 111.47875977 C102.80655518 112.02657104 102.80655518 112.02657104 101.95214844 112.58544922 C87.39720794 121.29167425 70.75763573 120.38988238 54.3918457 120.30517578 C51.64460395 120.29141922 48.89875087 120.29837037 46.15161133 120.32568359 C23.66136338 120.5488976 4.54181651 119.58291788 -12.41845703 103.16625977 C-24.87997768 90.57400309 -30.39746828 76.7669004 -30.53173828 59.21313477 C-30.53981003 58.20212708 -30.54788177 57.19111938 -30.55619812 56.1494751 C-30.56999225 54.01462495 -30.58073516 51.87975318 -30.58862305 49.74487305 C-30.60014138 47.57455932 -30.62059074 45.40427389 -30.65014648 43.23413086 C-30.6930399 40.08110507 -30.70902148 36.92891692 -30.71923828 33.77563477 C-30.73674637 32.81800232 -30.75425446 31.86036987 -30.77229309 30.87371826 C-30.74644279 22.73705944 -28.6527087 16.23393367 -24.10595703 9.47875977 C-16.47613526 2.01848959 -10.64741851 -0.16082234 0 0 Z " fill="#FAFAFA" transform="translate(419.29345703125,320.271240234375)"/>
<path d="M0 0 C1.63652145 -0.00390578 3.27304191 -0.00824415 4.90956116 -0.01298523 C8.31042798 -0.0203701 11.71119085 -0.02021266 15.11206055 -0.01489258 C19.41573744 -0.00909919 23.71898378 -0.02606404 28.02258968 -0.04923725 C31.39374675 -0.06414505 34.76480403 -0.06482362 38.13598824 -0.06172752 C39.72041236 -0.06223192 41.30484344 -0.06729833 42.88923454 -0.07753944 C57.13764032 -0.158396 70.54916619 1.80480162 84.34765625 5.30078125 C85.82218677 5.48776024 87.30188374 5.64286606 88.78515625 5.73828125 C91.90110351 6.03299468 94.58864597 6.62626053 97.53125 7.68359375 C103.07293765 9.59398911 108.71819966 10.9662576 114.41796875 12.31835938 C118.90440012 13.4436088 122.52855525 14.80040799 126.50317383 17.25927734 C128.61286956 18.45053638 130.74417622 19.29333058 133.0078125 20.15625 C139.16143037 22.54253668 144.94437954 25.55247252 150.78515625 28.61328125 C151.84025391 29.15662109 152.89535156 29.69996094 153.98242188 30.25976562 C165.09225115 36.05055049 175.3294795 42.79734358 185.34765625 50.30078125 C186.39050781 51.07421875 187.43335938 51.84765625 188.5078125 52.64453125 C196.21250808 58.41641394 203.40328999 64.63273308 210.34765625 71.30078125 C210.91129883 71.83719238 211.47494141 72.37360352 212.05566406 72.92626953 C220.11886373 80.63550764 227.43025296 88.6194349 234.07275391 97.5859375 C235.30636164 99.24523676 236.564966 100.88267729 237.828125 102.51953125 C249.6886846 118.188549 258.60746546 136.12432586 265.0546875 154.6328125 C265.89503181 157.01674998 266.76591149 159.39021895 267.671875 161.75 C271.00515445 170.52863686 272.80729961 179.08788866 274.34765625 188.30078125 C274.69293401 190.07336919 275.04575342 191.84452595 275.41015625 193.61328125 C275.55373566 194.34060959 275.69731506 195.06793793 275.84524536 195.81730652 C276.16531496 197.39944733 276.5048333 198.97786609 276.86984253 200.55024719 C278.73445862 209.26852421 278.60190807 217.91990439 278.54296875 226.78125 C278.5392307 228.44704517 278.53638748 230.11284257 278.53439331 231.77864075 C278.52681911 236.12690483 278.5072253 240.47503169 278.48498535 244.82324219 C278.46439176 249.27472071 278.45536292 253.72622177 278.4453125 258.17773438 C278.42397246 266.88548614 278.3888423 275.59310072 278.34765625 284.30078125 C270.75765625 284.30078125 263.16765625 284.30078125 255.34765625 284.30078125 C255.33831055 281.73039062 255.32896484 279.16 255.31933594 276.51171875 C255.28522346 267.91827179 255.22949142 259.32505638 255.16375351 250.73179626 C255.1246235 245.53326346 255.09226927 240.33489133 255.07666016 235.13623047 C255.47011686 199.19131699 255.47011686 199.19131699 248.02297974 164.25662231 C247.26525674 162.06213954 246.62466587 159.85146128 246.0234375 157.609375 C242.91984871 146.43053942 238.98611647 136.43631298 233.34765625 126.30078125 C232.60902344 124.955 232.60902344 124.955 231.85546875 123.58203125 C224.79504371 111.29609389 216.17136498 100.44757187 206.34765625 90.30078125 C205.87602051 89.80336426 205.40438477 89.30594727 204.91845703 88.79345703 C194.22017227 77.51551579 182.30310503 68.35145799 169.32519531 59.82788086 C167.632861 58.7004271 165.98511635 57.50654733 164.34765625 56.30078125 C164.34765625 55.64078125 164.34765625 54.98078125 164.34765625 54.30078125 C163.76757812 54.11902344 163.1875 53.93726563 162.58984375 53.75 C157.95618332 52.25897065 153.6500327 50.61744549 149.34765625 48.30078125 C149.34765625 47.64078125 149.34765625 46.98078125 149.34765625 46.30078125 C147.70796875 45.96046875 147.70796875 45.96046875 146.03515625 45.61328125 C139.62472004 44.01348873 133.79313328 40.94791368 127.85546875 38.109375 C119.61842803 34.40637301 111.03868106 32.13588583 102.33154297 29.79931641 C101.2901416 29.51878418 100.24874023 29.23825195 99.17578125 28.94921875 C98.24668945 28.70349121 97.31759766 28.45776367 96.36035156 28.20458984 C93.34765625 27.30078125 93.34765625 27.30078125 89.71246338 25.84806824 C85.3657927 24.21193719 81.0806785 23.33258305 76.49804688 22.64038086 C75.67386513 22.5141204 74.84968338 22.38785994 74.00052643 22.2577734 C65.31014545 21.01811132 56.70543737 20.84585982 47.94140625 20.8671875 C46.23962197 20.86260008 44.53783951 20.8572872 42.83605957 20.8513031 C39.29655361 20.84246167 35.75727426 20.84468744 32.21777344 20.85473633 C28.65177864 20.8638932 25.08644062 20.85706922 21.52050781 20.83422852 C-13.6535119 20.22363587 -13.6535119 20.22363587 -47.79830933 27.64494324 C-50.25227444 28.5129981 -52.74071646 29.09961517 -55.27734375 29.67578125 C-60.09184166 30.85471599 -64.81334604 32.21347222 -69.52734375 33.73828125 C-71.34878906 34.32416016 -71.34878906 34.32416016 -73.20703125 34.921875 C-76.67806956 36.15942486 -76.67806956 36.15942486 -79.47265625 38.2734375 C-82.97679268 40.50764734 -86.11147932 41.39691291 -90.078125 42.50048828 C-94.18729826 43.77797974 -97.87389592 45.70198958 -101.65234375 47.73828125 C-102.46340576 48.17148682 -103.27446777 48.60469238 -104.11010742 49.05102539 C-123.05039412 59.37259264 -140.08749423 72.42866495 -155.65234375 87.30078125 C-156.52761719 88.13480469 -157.40289062 88.96882813 -158.3046875 89.828125 C-166.87012126 98.18239244 -174.05551556 107.32159794 -180.96484375 117.05078125 C-181.46870605 117.75984619 -181.97256836 118.46891113 -182.49169922 119.19946289 C-186.99796438 125.63063951 -190.60032885 132.03714685 -193.65234375 139.30078125 C-194.55099348 141.09808071 -195.44989213 142.89526426 -196.35473633 144.68945312 C-204.72037212 161.55756039 -210.05738139 179.68389222 -212.65234375 198.30078125 C-213.02028789 200.63523762 -213.39458839 202.96870754 -213.77734375 205.30078125 C-213.92429687 206.24953125 -214.07125 207.19828125 -214.22265625 208.17578125 C-214.65234375 210.30078125 -214.65234375 210.30078125 -215.65234375 211.30078125 C-215.77645957 213.53935481 -215.83037398 215.78183609 -215.85766602 218.02368164 C-215.86756561 218.72608475 -215.87746521 219.42848785 -215.88766479 220.1521759 C-215.91936497 222.48422829 -215.94407063 224.81630109 -215.96875 227.1484375 C-215.98931219 228.7612716 -216.01030846 230.37410021 -216.03172302 231.98692322 C-216.08701967 236.239874 -216.13639531 240.49287402 -216.18457031 244.74591064 C-216.23473006 249.082605 -216.2904449 253.41922752 -216.34570312 257.75585938 C-216.45337752 266.27077435 -216.55428863 274.78575006 -216.65234375 283.30078125 C-223.91234375 283.30078125 -231.17234375 283.30078125 -238.65234375 283.30078125 C-238.72087351 274.17999762 -238.77558554 265.05939264 -238.80778027 255.93840694 C-238.82325352 251.70045637 -238.84414322 247.46269515 -238.87866211 243.22485352 C-239.23139026 198.72002316 -239.23139026 198.72002316 -233.65234375 180.30078125 C-233.37760224 178.70066632 -233.1263442 177.09628451 -232.90234375 175.48828125 C-230.72926302 163.28559714 -226.25653311 151.69181467 -220.45654297 140.77856445 C-218.83843295 137.73373815 -217.53452091 134.94693389 -216.4375 131.65234375 C-214.13820228 125.30992905 -210.0358133 119.85153669 -206.27734375 114.30078125 C-205.6762529 113.40604095 -205.6762529 113.40604095 -205.0630188 112.4932251 C-196.5134893 99.78384904 -187.52218236 87.67343908 -176.43359375 77.046875 C-174.5118569 75.23818426 -174.5118569 75.23818426 -172.58984375 72.67578125 C-169.66727926 69.09328285 -166.17150038 66.28416885 -162.65234375 63.30078125 C-161.72421875 62.48480469 -160.79609375 61.66882813 -159.83984375 60.828125 C-143.25434847 46.3400121 -123.91626521 31.84352631 -102.65234375 25.30078125 C-102.65234375 24.64078125 -102.65234375 23.98078125 -102.65234375 23.30078125 C-84.16172986 14.70655226 -64.53603469 8.69921614 -44.65234375 4.30078125 C-43.56711426 4.05086426 -43.56711426 4.05086426 -42.45996094 3.79589844 C-28.41887422 0.74606307 -14.31758962 -0.01459059 0 0 Z " fill="#FAF9F8" transform="translate(319.65234375,38.69921875)"/>
<path d="M0 0 C3.47274296 0.02432602 6.94517271 0.01871422 10.41797543 0.01273346 C13.81825911 0.00963459 17.21835561 0.02188318 20.61859322 0.03886414 C22.21581408 0.04577813 23.81305607 0.0490332 25.41029167 0.048172 C36.1915289 0.05702311 46.11269748 1.23677073 56.65905762 3.51818848 C58.5550311 3.87852355 60.45192014 4.23415057 62.35046387 4.58068848 C63.9743084 4.89242574 65.59801242 5.20489603 67.22155762 5.51818848 C68.04462402 5.67029785 68.86769043 5.82240723 69.71569824 5.97912598 C74.74725803 6.95893491 78.99244848 8.4096136 83.65905762 10.51818848 C85.65048801 11.13013844 87.65083215 11.71383457 89.65905762 12.26818848 C97.37046715 14.61133786 104.48020528 17.90977867 111.65905762 21.51818848 C113.02006592 22.20074707 113.02006592 22.20074707 114.40856934 22.89709473 C117.43627865 24.42465958 120.45524929 25.9682418 123.47155762 27.51818848 C124.42594727 28.00416504 125.38033691 28.4901416 126.36364746 28.99084473 C132.75429444 32.31641991 139.13464173 35.85148908 144.65905762 40.51818848 C144.65905762 41.17818848 144.65905762 41.83818848 144.65905762 42.51818848 C143.41960577 42.52057683 142.18015392 42.52296518 140.90314293 42.52542591 C111.43659977 42.58286907 81.97013554 42.65565851 52.50368055 42.74717476 C48.87155398 42.75844201 45.23942702 42.76958061 41.6072998 42.78063965 C40.88425276 42.78284333 40.16120572 42.78504702 39.41624816 42.78731748 C27.73100411 42.82262512 16.04576012 42.84752605 4.36048262 42.8685355 C-7.64261917 42.89034974 -19.64565215 42.92345319 -31.64869535 42.96689004 C-38.38517622 42.99094816 -45.1215889 43.00990725 -51.85811234 43.01580238 C-58.20612495 43.02187053 -64.55394346 43.04193315 -70.90188408 43.07246399 C-73.22452252 43.08121647 -75.54718636 43.08497262 -77.86984062 43.08319664 C-99.41553594 43.07192943 -116.89125591 44.71525257 -133.19250488 60.33068848 C-146.78211648 74.16738392 -151.44111867 88.86329869 -151.54626465 107.98303223 C-151.55616425 109.10586105 -151.56606384 110.22868988 -151.57626343 111.38554382 C-151.6077054 115.07557102 -151.63256714 118.76561105 -151.65734863 122.45568848 C-151.67793311 125.0225863 -151.69892997 127.58948085 -151.72032166 130.15637207 C-151.76976778 136.20867288 -151.81507268 142.26099155 -151.85834402 148.31333923 C-151.90787222 155.20822402 -151.96273213 162.10306322 -152.01802361 168.99790382 C-152.13156498 183.17128917 -152.23846372 197.34471904 -152.34094238 211.51818848 C-154.06425781 211.52435181 -154.06425781 211.52435181 -155.8223877 211.53063965 C-160.13923263 211.55263061 -164.45519166 211.60712243 -168.77160645 211.67077637 C-170.62959212 211.69378398 -172.48770502 211.70831105 -174.3458252 211.71374512 C-191.77694642 211.74416479 -191.77694642 211.74416479 -206.96691895 219.68688965 C-209.34094238 221.51818848 -209.34094238 221.51818848 -212.34094238 221.51818848 C-212.39174284 213.67113008 -212.42671829 205.82411426 -212.45080566 197.97692871 C-212.45971779 195.30855591 -212.47448689 192.64039846 -212.49182129 189.9720459 C-212.5161394 186.13193043 -212.5274417 182.29196078 -212.53625488 178.45178223 C-212.54657745 177.26297958 -212.55690002 176.07417694 -212.5675354 174.84934998 C-212.56832868 168.96449516 -212.28750233 164.07308294 -210.34094238 158.51818848 C-209.970963 156.85241719 -209.62157459 155.18186853 -209.29797363 153.50646973 C-206.08108435 137.454603 -202.36102951 121.11271245 -193.70031738 107.00256348 C-192.18226727 104.3945966 -192.18226727 104.3945966 -191.07531738 100.83068848 C-189.16761581 95.58757028 -186.06631437 91.28301647 -182.84094238 86.76818848 C-182.21437744 85.88493896 -181.5878125 85.00168945 -180.94226074 84.0916748 C-176.29565364 77.63848106 -171.44498859 71.67463771 -165.83068848 66.02697754 C-164.17061574 64.3456846 -162.5477686 62.63201284 -160.92297363 60.91662598 C-135.84146055 34.77693424 -135.84146055 34.77693424 -122.34094238 31.51818848 C-121.90781738 31.04381348 -121.47469238 30.56943848 -121.02844238 30.08068848 C-118.5002894 27.73980609 -115.62981481 27.32489303 -112.34094238 26.51818848 C-112.34094238 25.85818848 -112.34094238 25.19818848 -112.34094238 24.51818848 C-89.50760905 14.51818848 -89.50760905 14.51818848 -84.34094238 14.51818848 C-84.34094238 13.85818848 -84.34094238 13.19818848 -84.34094238 12.51818848 C-82.2411284 11.71504795 -80.13578286 10.92636764 -78.02844238 10.14318848 C-76.27080566 9.48189941 -76.27080566 9.48189941 -74.47766113 8.80725098 C-71.40498364 7.76044559 -68.3927806 7.13238468 -65.1920166 6.59973145 C-61.60176984 5.96872772 -58.11326871 5.232616 -54.60437012 4.2467041 C-36.57033349 -0.64355899 -18.52469413 -0.1704646 0 0 Z " fill="#FEFDFC" transform="translate(340.3409423828125,84.4818115234375)"/>
<path d="M0 0 C2.17819615 0.00253904 4.35640001 0.00111293 6.53459167 -0.00398254 C12.44587946 -0.00656602 18.35552534 0.04636373 24.26643133 0.10918307 C30.4443108 0.16542643 36.6222275 0.17073017 42.80032349 0.18141174 C54.49838092 0.20939039 66.19568182 0.28325336 77.89340603 0.37355715 C91.21122149 0.47413698 104.52899629 0.5236336 117.84711432 0.56881607 C145.24240849 0.66290187 172.63703101 0.82121554 200.03173828 1.02172852 C203.7510061 11.68362958 203.03173828 18.49774803 203.03173828 31.02172852 C164.42173828 31.02172852 125.81173828 31.02172852 86.03173828 31.02172852 C85.70173828 29.37172852 85.37173828 27.72172852 85.03173828 26.02172852 C83.54673828 25.52672852 83.54673828 25.52672852 82.03173828 25.02172852 C80.67786892 23.37170024 79.34495686 21.70428982 78.03173828 20.02172852 C77.04173828 19.36172852 76.05173828 18.70172852 75.03173828 18.02172852 C75.03173828 17.36172852 75.03173828 16.70172852 75.03173828 16.02172852 C70.74414127 14.98736659 66.54611506 14.80454629 62.15673828 14.77172852 C61.13386719 14.74079102 61.13386719 14.74079102 60.09033203 14.70922852 C53.32569695 14.65768844 47.92170999 16.80037101 42.78173828 21.27172852 C42.13720703 21.81313477 41.49267578 22.35454102 40.82861328 22.91235352 C36.34498699 28.1757409 35.58191093 33.53993679 35.78173828 40.14672852 C35.78947266 41.18120117 35.78947266 41.18120117 35.79736328 42.23657227 C35.84230066 45.17435348 35.99535347 47.87319287 36.69580078 50.73266602 C37.14179126 53.77162439 36.28640225 54.96468671 34.65673828 57.52172852 C31.10492371 63.15700974 30.88182517 68.32016476 30.78564453 74.87719727 C30.75273999 76.40129228 30.71952784 77.92538068 30.68603516 79.44946289 C30.63844035 81.83931425 30.59391364 84.22913254 30.55493164 86.61914062 C30.51534932 88.93458813 30.46381521 91.24952762 30.41064453 93.56469727 C30.40223038 94.28239792 30.39381622 95.00009857 30.38514709 95.73954773 C30.25852175 100.79494505 30.25852175 100.79494505 28.03173828 103.02172852 C25.39950562 103.26223755 25.39950562 103.26223755 22.02148438 103.2487793 C20.12974991 103.2485527 20.12974991 103.2485527 18.19979858 103.24832153 C16.81825606 103.23810749 15.43671513 103.22767549 14.05517578 103.21704102 C12.64556071 103.21331139 11.23594305 103.21046418 9.82632446 103.20846558 C6.11414446 103.20082507 2.40212067 103.18117313 -1.30999756 103.15905762 C-5.09710578 103.1386081 -8.88423921 103.12946578 -12.67138672 103.11938477 C-20.10374964 103.09792751 -27.5359838 103.06378668 -34.96826172 103.02172852 C-35.15372027 91.78224628 -35.29581815 80.54312865 -35.38275909 69.30242729 C-35.42448981 64.08265979 -35.48107854 58.86393991 -35.57177734 53.64477539 C-35.65878025 48.60668799 -35.70655179 43.56960728 -35.72727966 38.53082657 C-35.74204808 36.60977452 -35.77088929 34.68877689 -35.81410217 32.76815414 C-36.14109424 17.63108793 -36.14109424 17.63108793 -33.3449707 13.79425049 C-31.29443359 12.3581543 -31.29443359 12.3581543 -29.12568092 11.38657093 C-26.44161315 9.68855622 -26.16319464 8.34580649 -25.00839233 5.43955994 C-19.85584468 -2.51208775 -8.34622713 -0.13531778 0 0 Z " fill="#FDFCFB" transform="translate(346.96826171875,216.978271484375)"/>
<path d="M0 0 C0 0.66 0 1.32 0 2 C1.31677734 2.16628906 1.31677734 2.16628906 2.66015625 2.3359375 C11.03404491 4.00092121 18.84711534 9.22800445 24 16 C30.37779493 26.05117342 32.93862703 36.08152092 31 48 C27.79492081 58.562785 21.5418412 68.4424321 11.74609375 73.76953125 C0.83590239 78.97472869 -10.07441416 80.8922698 -22.05859375 78.3515625 C-28.08468903 76.15170869 -32.53203588 72.5258643 -37 68 C-37.54527344 67.48824219 -38.09054687 66.97648437 -38.65234375 66.44921875 C-45.51453225 59.41241986 -48.28226115 50.08728986 -48.5 40.4375 C-48.0396068 28.97488979 -46.04415881 20.40411144 -38 12 C-37.31679688 11.27683594 -36.63359375 10.55367188 -35.9296875 9.80859375 C-25.26751344 -0.56696273 -14.04268185 -0.55614582 0 0 Z " fill="#080808" transform="translate(474,333)"/>
<path d="M0 0 C12.60538814 6.86336317 20.20050882 15.15352116 24.5234375 28.78515625 C26.25251114 37.77307679 25.74982701 46.16797968 20.9375 53.9375 C20.22844062 55.92286627 19.54328253 57.91822489 18.9375 59.9375 C18.2775 59.9375 17.6175 59.9375 16.9375 59.9375 C16.54304688 60.82308594 16.54304688 60.82308594 16.140625 61.7265625 C11.92995866 69.46434544 2.9639564 73.84583872 -5.10791016 76.44384766 C-14.75797188 78.88107284 -25.32366019 77.61951751 -34.0625 72.9375 C-43.45803605 67.23360774 -49.96246257 58.55323826 -53.40625 48.1328125 C-55.82132126 36.37371553 -54.68685862 25.71422306 -48.4375 15.4375 C-43.43713827 8.26576531 -37.34993897 2.80622887 -29.0625 -0.0625 C-28.34835938 -0.40667969 -27.63421875 -0.75085938 -26.8984375 -1.10546875 C-18.8134163 -3.83388499 -7.78226494 -3.3557568 0 0 Z " fill="#090909" transform="translate(234.0625,335.0625)"/>
<path d="M0 0 C3.59006454 0.80332137 4.97678728 2.4476028 6.97265625 5.44140625 C7.70171138 12.14446653 6.22127892 15.74429953 2.53515625 21.25390625 C-0.68734557 26.12066856 -0.68734557 26.12066856 -3.02734375 31.44140625 C19.08265625 31.44140625 41.19265625 31.44140625 63.97265625 31.44140625 C59.57836968 23.13274286 59.57836968 23.13274286 56.16015625 18.50390625 C53.29862889 13.98522855 53.01555915 9.65022318 53.97265625 4.44140625 C55.41015625 1.81640625 55.41015625 1.81640625 57.97265625 0.44140625 C61.21292052 -0.35789993 63.73524698 -0.38321368 66.97265625 0.44140625 C68.45996094 1.84716797 68.45996094 1.84716797 69.76953125 3.74609375 C70.27597168 4.47183594 70.78241211 5.19757813 71.30419922 5.9453125 C71.85479004 6.76902344 72.40538086 7.59273438 72.97265625 8.44140625 C73.90489014 9.80072266 73.90489014 9.80072266 74.85595703 11.1875 C76.89610311 14.20428505 78.87542374 17.25485927 80.84765625 20.31640625 C81.53601563 21.34121094 82.224375 22.36601562 82.93359375 23.421875 C86.62050509 29.17901631 88.77963234 33.46256468 88.45507812 40.375 C87.65329248 43.80936929 85.76265753 45.44854819 82.97265625 47.44140625 C82.31265625 47.44140625 81.65265625 47.44140625 80.97265625 47.44140625 C80.64265625 48.43140625 80.31265625 49.42140625 79.97265625 50.44140625 C67.28145951 50.53406151 54.59034315 50.60514876 41.89887714 50.64865494 C36.00578685 50.6695351 30.11292787 50.69786109 24.2199707 50.74316406 C18.5335837 50.78660573 12.84741927 50.81054013 7.16087914 50.82091522 C4.99071943 50.82830955 2.820572 50.84274882 0.65050697 50.86432648 C-2.38780475 50.89333756 -5.42519524 50.89736314 -8.46362305 50.89550781 C-9.36201904 50.90988892 -10.26041504 50.92427002 -11.18603516 50.93908691 C-15.31065027 50.9118098 -17.45273353 50.80486471 -21.01179504 48.5536499 C-24.9643741 44.41144784 -26.35246333 41.54021313 -26.42578125 35.69921875 C-25.11440806 28.26810399 -20.37300094 21.63243609 -16.58984375 15.25390625 C-16.01685547 14.26970703 -15.44386719 13.28550781 -14.85351562 12.27148438 C-14.01336914 10.84932617 -14.01336914 10.84932617 -13.15625 9.3984375 C-12.6516626 8.5422583 -12.1470752 7.6860791 -11.62719727 6.80395508 C-8.35816692 1.97648573 -6.16306483 -0.35711217 0 0 Z " fill="#0E0F0E" transform="translate(314.02734375,461.55859375)"/>
<path d="M0 0 C39.27 0 78.54 0 119 0 C119 9.24 119 18.48 119 28 C110 27 110 27 106.21694946 25.45977783 C100.79609168 23.26742768 95.29707896 23.59730845 89.52880859 23.64355469 C87.68345772 23.64048813 87.68345772 23.64048813 85.80082703 23.63735962 C82.44748583 23.6348773 79.0947064 23.64569889 75.74144316 23.66288662 C72.22221898 23.67799987 68.70299754 23.67675039 65.18374634 23.67755127 C59.27771758 23.6812353 53.37180563 23.69616016 47.46582031 23.71875 C39.89537277 23.7476481 32.32501904 23.75797776 24.75452232 23.7624321 C18.22972617 23.76641828 11.70495022 23.77891601 5.18016863 23.79277897 C3.09002637 23.796867 0.99988482 23.79979811 -1.09025955 23.80257416 C-4.98940144 23.80839892 -8.88848279 23.82308642 -12.78759766 23.83886719 C-14.51770332 23.84054398 -14.51770332 23.84054398 -16.28276062 23.84225464 C-17.34804489 23.84796478 -18.41332916 23.85367493 -19.51089478 23.85955811 C-20.43151514 23.86253277 -21.35213551 23.86550743 -22.30065346 23.86857224 C-25.26049102 24.01268298 -28.08818633 24.46165403 -31 25 C-30.67 21.04 -30.34 17.08 -30 13 C-29.14277344 12.96261719 -28.28554688 12.92523438 -27.40234375 12.88671875 C-17.00327941 12.28880186 -9.12148862 9.69238547 -1 3 C-0.67 2.01 -0.34 1.02 0 0 Z " fill="#FCFAF7" transform="translate(432,273)"/>
<path d="M0 0 C1.38574471 -0.01279495 1.38574471 -0.01279495 2.79948425 -0.02584839 C3.80582916 -0.02494202 4.81217407 -0.02403564 5.84901428 -0.02310181 C6.91445969 -0.02981903 7.97990509 -0.03653625 9.07763672 -0.04345703 C12.60312042 -0.06247053 16.12841413 -0.06636278 19.65394592 -0.06851196 C22.10247883 -0.07493695 24.55101096 -0.08166508 26.99954224 -0.08868408 C32.13330364 -0.10066482 37.2669977 -0.10436402 42.40077209 -0.10317993 C48.98287137 -0.10297656 55.56453975 -0.13029416 62.14653683 -0.16472435 C67.20369454 -0.18694677 72.26074774 -0.19101892 77.3179493 -0.18996048 C79.74486846 -0.19232287 82.17179024 -0.20118205 84.59866142 -0.21662521 C87.99101456 -0.23619265 91.38242767 -0.23048309 94.77479553 -0.21841431 C96.28127655 -0.23527283 96.28127655 -0.23527283 97.81819153 -0.25247192 C102.13648202 -0.21337836 104.69367369 -0.13115559 108.48062134 2.07904053 C111.09418161 5.09567235 111.30617315 7.32340044 111.37660217 11.26742554 C110.57649368 13.95869956 109.9800443 14.89972723 107.58911991 16.35660076 C105.10650132 17.37861766 103.34172062 17.52140424 100.66381836 17.52812195 C99.72026993 17.53520676 98.7767215 17.54229156 97.80458069 17.54959106 C96.77639221 17.54711365 95.74820374 17.54463623 94.68885803 17.54208374 C93.05661034 17.54975014 93.05661034 17.54975014 91.39138794 17.55757141 C87.79135147 17.57148193 84.19150608 17.57050983 80.59144592 17.56820679 C78.09328134 17.57209225 75.59511741 17.57642661 73.09695435 17.58119202 C67.86064524 17.58865689 62.62438574 17.58849851 57.38807678 17.58309937 C51.33382166 17.57705296 45.27979855 17.58938883 39.22558302 17.61066943 C33.40032258 17.63039272 27.5751533 17.63346145 21.74986458 17.62993431 C19.27106239 17.63044892 16.79225659 17.63571264 14.31347466 17.64574623 C10.85378305 17.65803365 7.39463419 17.65136554 3.93495178 17.63973999 C2.90473907 17.64738373 1.87452637 17.65502747 0.81309509 17.66290283 C-0.12763351 17.65588852 -1.06836212 17.64887421 -2.03759766 17.64164734 C-3.26454645 17.64189895 -3.26454645 17.64189895 -4.51628208 17.64215565 C-7.13180043 17.17701106 -8.00513605 16.33337406 -9.62339783 14.26742554 C-10.69134348 10.77689175 -10.95163452 7.40133412 -9.93589783 3.89242554 C-7.25700903 0.57570607 -4.10384138 0.01717211 0 0 Z " fill="#070807" transform="translate(294.62339782714844,547.7325744628906)"/>
<path d="M0 0 C0.95910782 -0.00145523 1.91821564 -0.00291046 2.90638733 -0.00440979 C4.9329838 -0.00275124 6.95959292 0.00880513 8.98608398 0.02954102 C12.08306606 0.05845752 15.17833204 0.05015636 18.27539062 0.03710938 C20.24610205 0.04334818 22.21680807 0.05174023 24.1875 0.0625 C25.11159164 0.05956436 26.03568329 0.05662872 26.98777771 0.05360413 C31.83244768 0.12443041 35.25965325 0.28209499 39.16015625 3.49609375 C40.58677844 6.34933812 40.47049493 8.33063924 40.16015625 11.49609375 C38.36021851 14.19600037 37.07638325 16.03798025 34.16015625 17.49609375 C32.76229392 17.60528936 31.35952432 17.65505788 29.95751953 17.6730957 C28.65574265 17.69234856 28.65574265 17.69234856 27.32766724 17.71199036 C26.38809174 17.71937729 25.44851624 17.72676422 24.48046875 17.734375 C23.03400467 17.74648262 23.03400467 17.74648262 21.55831909 17.75883484 C19.51562297 17.77267855 17.47290369 17.78339942 15.43017578 17.79125977 C12.30456844 17.80848676 9.18001484 17.85237196 6.0546875 17.89648438 C4.07162237 17.90660992 2.08854824 17.91512646 0.10546875 17.921875 C-1.29782181 17.94813713 -1.29782181 17.94813713 -2.72946167 17.97492981 C-9.21310553 17.95323077 -9.21310553 17.95323077 -12.42822266 15.6081543 C-14.04354805 13.19131237 -14.3794155 11.88483114 -14.33984375 8.99609375 C-14.35015625 8.24328125 -14.36046875 7.49046875 -14.37109375 6.71484375 C-12.5893283 -0.72664726 -6.28037756 -0.07618229 0 0 Z " fill="#0D0D0D" transform="translate(330.83984375,576.50390625)"/>
<path d="M0 0 C0.85698673 0.00291284 1.71397346 0.00582568 2.59692949 0.00882679 C3.50024899 0.00797237 4.40356848 0.00711794 5.3342613 0.00623763 C8.38529224 0.00458005 11.43626915 0.01010871 14.48729509 0.01555592 C16.66475479 0.01583776 18.84221459 0.01568012 21.01967424 0.01511341 C26.95125229 0.01482531 32.88281031 0.02072415 38.81438369 0.02768737 C45.0057224 0.03391873 51.19706152 0.03452453 57.38840288 0.03571278 C68.4537988 0.03864949 79.51918639 0.04587962 90.58457851 0.0553555 C104.60652416 0.0672998 118.62846867 0.07348206 132.65041834 0.0787577 C160.12917082 0.08922356 187.60791505 0.10682425 215.08666033 0.12908131 C217.42594604 6.64693845 217.42594604 6.64693845 216.08666033 10.12908131 C214.83001055 7.2230787 214.08666033 5.33303547 214.08666033 2.12908131 C141.48666033 2.45908131 68.88666033 2.78908131 -5.91333967 3.12908131 C-6.24333967 4.11908131 -6.57333967 5.10908131 -6.91333967 6.12908131 C-7.57333967 6.12908131 -8.23333967 6.12908131 -8.91333967 6.12908131 C-6.68500759 0.33541789 -6.34023598 0.01635575 0 0 Z " fill="#F8D5B1" transform="translate(331.9133396744728,217.8709186911583)"/>
<path d="M0 0 C3.32229024 1.68898554 6.28921215 3.5784243 8 7 C8.4019993 12.92948974 7.88102918 16.77146556 5 22 C0.3666637 23.54444543 -4.17373317 23.76909808 -9 23 C-11.9443042 20.91978508 -13.39671398 18.20657204 -15 15 C-15.60652223 11.16125168 -15.83722992 7.57539828 -13.9765625 4.07421875 C-10.06108012 -0.45778987 -5.75706979 -1.36692991 0 0 Z " fill="#EEEEEF" transform="translate(222,342)"/>
<path d="M0 0 C1.22589844 0.01353516 1.22589844 0.01353516 2.4765625 0.02734375 C3.41628906 0.04474609 3.41628906 0.04474609 4.375 0.0625 C4.375 0.7225 4.375 1.3825 4.375 2.0625 C5.15875 2.330625 5.9425 2.59875 6.75 2.875 C9.375 4.0625 9.375 4.0625 11.375 7.0625 C12.10017392 11.56532411 11.97500036 15.05535654 9.625 19 C5.62392804 22.6676493 2.01380352 23.75724091 -3.36328125 23.6328125 C-7.0680465 22.69862299 -8.59945483 20.49220269 -10.5859375 17.3515625 C-12.35020479 13.46486838 -12.37945527 11.31488424 -11.625 7.0625 C-8.63677683 2.01645281 -5.80351479 -0.08290735 0 0 Z " fill="#EFEFEF" transform="translate(464.625,341.9375)"/>
<path d="M0 0 C0.94134195 3.06739385 0.99192849 5.37818722 0.57533264 8.54794312 C-0.0589645 14.12163678 -0.17281921 19.62719903 -0.20532227 25.23291016 C-0.21522186 26.30726318 -0.22512146 27.38161621 -0.23532104 28.48852539 C-0.26666375 32.00534942 -0.29158472 35.52218692 -0.31640625 39.0390625 C-0.33699935 41.49100069 -0.35799641 43.94293551 -0.37937927 46.39486694 C-0.43435675 52.82270572 -0.48387251 59.25057524 -0.53222656 65.6784668 C-0.58262008 72.24791167 -0.63821263 78.81731236 -0.69335938 85.38671875 C-0.80064309 98.25777602 -0.90167229 111.12887119 -1 124 C6.26 124 13.52 124 21 124 C20.98952637 120.69919434 20.97905273 117.39838867 20.96826172 113.99755859 C20.9351259 103.09312411 20.91303185 92.18868741 20.89637566 81.28421593 C20.88593737 74.67268588 20.8717772 68.0612074 20.84912109 61.44970703 C20.82739455 55.06956093 20.81543171 48.68946445 20.81024551 42.30928421 C20.80654944 39.87482548 20.79933201 37.44036947 20.78853989 35.00593185 C20.77402769 31.59683101 20.77202197 28.18793535 20.77294922 24.77880859 C20.76575867 23.77179901 20.75856812 22.76478943 20.75115967 21.7272644 C20.76582862 16.74497918 21.02159097 12.66867294 23 8 C23.33 8 23.66 8 24 8 C23.67 46.61 23.34 85.22 23 125 C14.75 125 6.5 125 -2 125 C-2.04524033 110.17857264 -2.08204343 95.3571885 -2.10362434 80.53570747 C-2.11391345 73.65301151 -2.12792825 66.77036166 -2.15087891 59.88769531 C-2.1730297 53.24169904 -2.18457957 46.59573797 -2.18975449 39.94970322 C-2.19344095 37.41807172 -2.20063966 34.88644275 -2.21146011 32.3548317 C-2.22604352 28.8004624 -2.22797506 25.24628908 -2.22705078 21.69189453 C-2.23783661 20.13282127 -2.23783661 20.13282127 -2.24884033 18.54225159 C-2.23089146 12.13539237 -1.50604751 6.22891236 0 0 Z " fill="#F0914A" transform="translate(190,171)"/>
<path d="M0 0 C3.28882169 1.74190556 6.31116727 3.62233453 8 7 C8.13415472 9.6723621 8.04318541 12.32250488 8 15 C7.34 15 6.68 15 6 15 C5.731875 15.61875 5.46375 16.2375 5.1875 16.875 C4 19 4 19 1 21 C-3.68565949 21.67273241 -7.70419623 21.92557412 -11.625 19.125 C-13 17 -13 17 -13 15 C-13.66 15 -14.32 15 -15 15 C-15.78279267 7.01551481 -15.78279267 7.01551481 -12.6875 3 C-8.47407472 -0.1355723 -5.17211536 -0.51721154 0 0 Z " fill="#FCF7F1" transform="translate(303,197)"/>
<path d="M0 0 C3.69810446 2.87630347 5.08269104 4.43542958 5.6875 9.1875 C5.17659034 13.34776436 4.22607415 14.85659458 1.25 17.75 C-2.23828431 20.27599898 -5.54668393 20.25729677 -9.75 19.75 C-12.72239241 17.96523759 -15.17604027 15.89791945 -16.75 12.75 C-17.1251455 7.77932218 -16.90878799 4.69848498 -13.75 0.75 C-9.61658763 -2.35005928 -4.55745539 -2.07157063 0 0 Z " fill="#FDF9F4" transform="translate(414.75,249.25)"/>
<path d="M0 0 C2.5 1.375 2.5 1.375 5 3 C5 3.66 5 4.32 5 5 C-74.86 5 -154.72 5 -237 5 C-237 4.67 -237 4.34 -237 4 C-158.79 3.67 -80.58 3.34 0 3 C0 2.01 0 1.02 0 0 Z " fill="#FAE0C6" transform="translate(480,122)"/>
<path d="M0 0 C0.66 0.33 1.32 0.66 2 1 C-8.56 11.56 -19.12 22.12 -30 33 C-30.66 32.67 -31.32 32.34 -32 32 C-26.52705169 25.67570417 -20.77886192 19.67024637 -14.875 13.75 C-14.20662109 13.07710937 -13.53824219 12.40421875 -12.84960938 11.7109375 C-8.72292538 7.5964506 -4.47026669 3.7387685 0 0 Z " fill="#303232" transform="translate(141,74)"/>
<path d="M0 0 C0.66 0.33 1.32 0.66 2 1 C-3.12032601 6.86125173 -8.40343419 12.52948182 -13.875 18.0625 C-14.43405029 18.63444092 -14.99310059 19.20638184 -15.5690918 19.7956543 C-18.01592409 22.248421 -19.66761196 23.88920399 -23 25 C-21.43717018 21.23396131 -19.0936525 18.86360849 -16.2109375 16.015625 C-15.74765045 15.55516785 -15.2843634 15.09471069 -14.80703735 14.62030029 C-13.33434102 13.15874922 -11.85482597 11.70432832 -10.375 10.25 C-9.37193678 9.25697389 -8.36932743 8.26348911 -7.3671875 7.26953125 C-4.91669165 4.84102059 -2.4600333 2.41885325 0 0 Z " fill="#FAE4D1" transform="translate(191,134)"/>
<path d="M0 0 C0.33 0 0.66 0 1 0 C1.33 17.82 1.66 35.64 2 54 C2.66 54.33 3.32 54.66 4 55 C2.02 55.495 2.02 55.495 0 56 C0 37.52 0 19.04 0 0 Z " fill="#F6B887" transform="translate(128,250)"/>
<path d="M0 0 C0.66 0.33 1.32 0.66 2 1 C-0.20223821 3.40149694 -2.41287441 5.79511065 -4.625 8.1875 C-5.24246094 8.86103516 -5.85992187 9.53457031 -6.49609375 10.22851562 C-10.1266805 14.14572764 -13.81284653 17.6824861 -18 21 C-18 18 -18 18 -16.34765625 16.00708008 C-15.21650391 14.89949341 -15.21650391 14.89949341 -14.0625 13.76953125 C-13.25039062 12.96708984 -12.43828125 12.16464844 -11.6015625 11.33789062 C-10.74304688 10.50451172 -9.88453125 9.67113281 -9 8.8125 C-7.71222656 7.5450293 -7.71222656 7.5450293 -6.3984375 6.25195312 C-4.2721635 4.16111702 -2.13921536 2.07758017 0 0 Z " fill="#F29345" transform="translate(172,117)"/>
<path d="M0 0 C1.51289503 0.00031716 3.0258126 0.01164445 4.53857422 0.03173828 C5.33480194 0.03456818 6.13102966 0.03739807 6.9513855 0.04031372 C9.49882935 0.05152438 12.04592383 0.07663016 14.59326172 0.10205078 C16.31851706 0.11207945 18.04377791 0.1212055 19.76904297 0.12939453 C24.00225086 0.15146656 28.23519702 0.18600212 32.46826172 0.22705078 C32.46826172 0.55705078 32.46826172 0.88705078 32.46826172 1.22705078 C31.46448486 1.23639648 30.46070801 1.24574219 29.42651367 1.25537109 C25.68941462 1.29535309 21.95313174 1.36113334 18.21655273 1.43457031 C16.60175083 1.46273264 14.98681229 1.48397078 13.37182617 1.49804688 C11.04518935 1.51954337 8.72018694 1.56622289 6.39404297 1.61767578 C5.6761409 1.61890442 4.95823883 1.62013306 4.21858215 1.62139893 C-0.62026807 1.76164819 -3.08264741 2.85146995 -6.53173828 6.22705078 C-5.63565223 1.74662051 -4.86210302 0.31257817 0 0 Z " fill="#DFDFDF" transform="translate(329.53173828125,346.77294921875)"/>
<path d="M0 0 C0.33 0 0.66 0 1 0 C1 10.56 1 21.12 1 32 C-0.98 30.35 -2.96 28.7 -5 27 C-4.34 26.67 -3.68 26.34 -3 26 C-2.01 26.33 -1.02 26.66 0 27 C0 18.09 0 9.18 0 0 Z " fill="#E97119" transform="translate(310,282)"/>
<path d="M0 0 C0.66 0.33 1.32 0.66 2 1 C-3.94 6.94 -9.88 12.88 -16 19 C-16.66 18.67 -17.32 18.34 -18 18 C-13.51609924 12.74095682 -8.9532985 7.86702244 -3.6640625 3.41015625 C-1.8974177 1.95229227 -1.8974177 1.95229227 0 0 Z " fill="#CBCECD" transform="translate(159,100)"/>
<path d="M0 0 C0.66 0.33 1.32 0.66 2 1 C-2.03523352 5.81123996 -6.04467233 10.13242719 -11 14 C-11 11 -11 11 -8.59375 8.30078125 C-7.5700032 7.29697757 -6.5383946 6.30114351 -5.5 5.3125 C-4.97535156 4.80138672 -4.45070312 4.29027344 -3.91015625 3.76367188 C-2.61339096 2.50227292 -1.30753883 1.25022788 0 0 Z " fill="#F38D40" transform="translate(212,139)"/>
<path d="M0 0 C0.66 0.33 1.32 0.66 2 1 C-0.11905463 3.17277714 -2.24472878 5.33826908 -4.375 7.5 C-4.97828125 8.12003906 -5.5815625 8.74007813 -6.203125 9.37890625 C-6.78320312 9.96542969 -7.36328125 10.55195313 -7.9609375 11.15625 C-8.49509277 11.70087891 -9.02924805 12.24550781 -9.57958984 12.80664062 C-11 14 -11 14 -13 14 C-11.43416404 9.96278439 -8.55826135 7.52929418 -5.375 4.75 C-4.859375 4.29109375 -4.34375 3.8321875 -3.8125 3.359375 C-2.5465398 2.23407704 -1.27392058 1.11627823 0 0 Z " fill="#2C2119" transform="translate(134,302)"/>
<path d="M0 0 C-1.59092052 4.13639336 -4.60474918 7.23213248 -8 10 C-8.66 10 -9.32 10 -10 10 C-8.50006099 6.10015857 -4.53875449 0 0 0 Z " fill="#303231" transform="translate(443,340)"/>
<path d="M0 0 C0.66 0.33 1.32 0.66 2 1 C0 4 0 4 -3 5 C-3.66 5.825 -4.32 6.65 -5 7.5 C-7 10 -7 10 -10 11 C-8.55218207 7.55571735 -6.72305391 5.63869038 -3.875 3.25 C-3.15054687 2.63640625 -2.42609375 2.0228125 -1.6796875 1.390625 C-0.84824219 0.70226562 -0.84824219 0.70226562 0 0 Z " fill="#F29D55" transform="translate(395,233)"/>
<path d="M0 0 C-1.5830577 4.2742558 -4.50568404 6.26531794 -8 9 C-8 6 -8 6 -6.7578125 4.39453125 C-5.94957031 3.61142578 -5.94957031 3.61142578 -5.125 2.8125 C-4.59132812 2.28269531 -4.05765625 1.75289063 -3.5078125 1.20703125 C-2 0 -2 0 0 0 Z " fill="#3E3F3E" transform="translate(196,341)"/>
<path d="M0 0 C0.66 0.33 1.32 0.66 2 1 C-1.3 4.3 -4.6 7.6 -8 11 C-8 7.0234755 -6.61988497 5.9109833 -4 3 C-1.75 1.1875 -1.75 1.1875 0 0 Z " fill="#B8BABB" transform="translate(146,323)"/>
<path d="M0 0 C0.66 0.33 1.32 0.66 2 1 C-3.14285714 7.57142857 -3.14285714 7.57142857 -7 9 C-5.44499019 5.18315774 -2.96404505 2.80804268 0 0 Z " fill="#F3974C" transform="translate(283,184)"/>
<path d="M0 0 C0.66 0.33 1.32 0.66 2 1 C1.04882866 2.1725131 0.08882991 3.33787015 -0.875 4.5 C-1.40867187 5.1496875 -1.94234375 5.799375 -2.4921875 6.46875 C-2.98976563 6.9740625 -3.48734375 7.479375 -4 8 C-4.66 8 -5.32 8 -6 8 C-4.55746343 4.63408134 -2.66735273 2.48952921 0 0 Z " fill="#42200B" transform="translate(386,306)"/>
<path d="M0 0 C0.66 0.33 1.32 0.66 2 1 C-2.625 6.875 -2.625 6.875 -6 8 C-4.55746343 4.63408134 -2.66735273 2.48952921 0 0 Z " fill="#F8D6B9" transform="translate(226,160)"/>
<path d="M0 0 C0.66 0.33 1.32 0.66 2 1 C0.88121617 2.17262904 -0.24523051 3.33795138 -1.375 4.5 C-2.00148438 5.1496875 -2.62796875 5.799375 -3.2734375 6.46875 C-5 8 -5 8 -7 8 C-5.50902342 4.2047869 -3.24299151 2.38957269 0 0 Z " fill="#B8BBBB" transform="translate(55,353)"/>
<path d="M0 0 C0.33 0 0.66 0 1 0 C1.1953125 2.05078125 1.390625 4.1015625 1.5859375 6.15234375 C1.72257813 6.76207031 1.85921875 7.37179687 2 8 C2.66 8.33 3.32 8.66 4 9 C2.68 9.33 1.36 9.66 0 10 C0 6.7 0 3.4 0 0 Z " fill="#ECC9A7" transform="translate(128,296)"/>
</svg>
